<?xml version="1.0" encoding="iso-8859-1"?>
<!-- Uploaded to: SVG Repo, www.svgrepo.com, Generator: SVG Repo Mixer Tools -->
<svg version="1.1" id="Layer_1" xmlns="http://www.w3.org/2000/svg" xmlns:xlink="http://www.w3.org/1999/xlink" 
	 viewBox="0 0 504.123 504.123" xml:space="preserve">
<circle style="fill:#90DFAA;" cx="252.062" cy="252.062" r="252.062"/>
<rect x="193.378" y="313.502" style="fill:#FF7058;" width="24.812" height="32.689"/>
<polygon style="fill:#324A5E;" points="233.945,411.963 167.778,411.963 127.212,280.418 193.378,280.418 "/>
<path style="fill:#FF7058;" d="M172.898,289.871h-43.323c-26.782,0-48.443-21.662-48.443-48.443v-27.963
	c0-26.782,21.662-48.443,48.443-48.443h43.323V289.871z"/>
<path style="fill:#FFFFFF;" d="M343.828,96.492l-54.745,37.809c-29.145,20.086-62.622,30.72-96.886,30.72h-19.298v124.849h19.298
	c33.871,0,67.348,10.634,96.886,30.72l54.745,37.809V96.492z"/>
<g>
	<path style="fill:#F1543F;" d="M359.188,371.003h-5.514c-5.514,0-9.846-4.332-9.846-9.846V94.129c0-5.514,4.332-9.846,9.846-9.846
		h5.514c5.514,0,9.846,4.332,9.846,9.846v267.028C369.034,366.671,364.702,371.003,359.188,371.003z"/>
	<ellipse style="fill:#F1543F;" cx="89.009" cy="227.249" rx="4.332" ry="20.48"/>
</g>
</svg>