<?xml version="1.0" encoding="iso-8859-1"?>
<!-- Uploaded to: SVG Repo, www.svgrepo.com, Generator: SVG Repo Mixer Tools -->
<svg height="800px" width="800px" version="1.1" id="Layer_1" xmlns="http://www.w3.org/2000/svg" xmlns:xlink="http://www.w3.org/1999/xlink" 
	 viewBox="0 0 504.123 504.123" xml:space="preserve">
<circle style="fill:#FFD05B;" cx="252.062" cy="252.062" r="252.062"/>
<path style="fill:#FFFFFF;" d="M109.095,252.062L109.095,252.062L109.095,252.062c78.769,102.006,206.769,102.006,285.538,0l0,0l0,0
	C315.865,150.055,188.258,150.055,109.095,252.062z"/>
<circle style="fill:#84DBFF;" cx="252.062" cy="252.062" r="68.923"/>
<circle style="fill:#2B3B4E;" cx="252.062" cy="252.062" r="35.446"/>
<path style="fill:#FFFFFF;" d="M239.065,252.062h-10.634c0-12.997,10.634-23.631,23.631-23.631v11.028
	C244.972,239.065,239.065,244.972,239.065,252.062z"/>
<path style="fill:#F1543F;" d="M244.185,409.6c-5.12-0.394-10.634-0.788-15.754-1.575l1.182-7.877
	c5.12,0.788,9.846,1.182,14.966,1.575L244.185,409.6z M260.332,409.6l-0.394-7.877c5.12-0.394,10.24-0.788,14.966-1.575l1.182,7.877
	C270.966,408.812,265.452,409.206,260.332,409.6z M212.677,404.874c-5.12-1.182-10.24-2.757-15.36-4.726l2.757-7.483
	c4.726,1.575,9.452,3.151,14.572,4.332L212.677,404.874z M291.84,404.874l-1.969-7.483c4.726-1.182,9.846-2.757,14.572-4.726
	l2.757,7.483C302.08,401.723,296.96,403.298,291.84,404.874z M182.745,393.846c-4.726-2.363-9.452-5.12-13.785-7.877l4.332-6.695
	c4.332,2.757,8.665,5.12,13.391,7.483L182.745,393.846z M321.378,393.846l-3.545-7.089c4.332-2.363,9.058-4.726,13.391-7.483
	l4.332,6.695C330.831,388.726,326.498,391.483,321.378,393.846z M155.963,376.911c-4.332-3.151-8.271-6.695-12.209-10.24
	l5.514-5.908c3.545,3.545,7.483,6.695,11.422,9.846L155.963,376.911z M348.554,376.911l-4.726-6.302
	c3.938-3.151,7.877-6.302,11.422-9.846l5.514,5.514C356.825,369.822,352.886,373.366,348.554,376.911z M132.726,354.855
	c-3.545-3.938-6.695-8.271-9.846-12.603l6.302-4.332c2.757,3.938,5.908,8.271,9.452,11.815L132.726,354.855z M371.791,354.855
	l-5.908-5.12c3.151-3.938,6.302-7.877,9.452-11.815l6.302,4.332C378.486,346.585,374.942,350.917,371.791,354.855z M114.609,328.862
	c-2.757-4.726-5.12-9.452-7.089-14.178l7.089-3.151c1.969,4.726,4.332,9.059,6.695,13.785L114.609,328.862z M389.908,328.468
	l-6.695-3.938c2.363-4.332,4.726-9.058,6.695-13.785l7.089,3.151C394.634,319.015,392.271,324.135,389.908,328.468z
	 M101.612,299.717c-1.575-5.12-2.757-10.24-3.938-15.36l7.877-1.575c1.182,5.12,2.363,9.846,3.938,14.572L101.612,299.717z
	 M402.511,299.323l-7.483-2.363c1.575-4.726,2.757-9.846,3.938-14.572l7.877,1.575C405.268,289.083,404.086,294.203,402.511,299.323
	z M95.311,268.603c-0.394-5.12-0.788-10.634-0.788-15.754h7.877c0,5.12,0.394,10.24,0.788,14.966L95.311,268.603z M408.812,268.209
	l-7.877-0.788c0.394-5.12,0.788-10.24,0.788-14.966v-0.788h7.877v0.788C409.6,257.575,409.206,262.695,408.812,268.209z
	 M103.188,237.489l-7.877-0.788c0.394-5.12,1.182-10.634,2.363-15.754l7.877,1.575C104.369,227.249,103.582,232.369,103.188,237.489
	z M400.935,236.308c-0.394-5.12-1.182-10.24-2.363-14.966l7.877-1.575c1.182,5.12,1.969,10.634,2.363,15.754L400.935,236.308z
	 M109.095,207.557l-7.483-2.363c1.575-5.12,3.545-10.24,5.514-14.966l7.089,3.151C112.246,198.105,110.671,202.831,109.095,207.557z
	 M394.634,206.769c-1.575-4.726-3.151-9.452-5.514-14.178l7.089-3.151c1.969,4.726,3.938,9.846,5.514,14.966L394.634,206.769z
	 M120.911,179.594l-7.089-3.938c2.757-4.726,5.514-9.058,8.271-13.391l6.302,4.332C126.031,170.929,123.274,175.262,120.911,179.594
	z M382.818,178.806c-2.363-4.332-5.12-8.665-8.271-12.997l6.302-4.726c3.151,4.332,5.908,9.058,8.665,13.391L382.818,178.806z
	 M138.24,154.782l-5.908-5.12c3.545-3.938,7.089-7.877,11.028-11.422l5.514,5.514C144.935,147.298,141.391,151.237,138.24,154.782z
	 M365.095,154.388c-3.151-3.938-6.695-7.483-10.634-11.028l5.514-5.908c3.938,3.545,7.483,7.483,11.028,11.422L365.095,154.388z
	 M160.295,133.908l-4.726-6.302c4.332-3.151,8.665-6.302,12.997-9.058l4.332,6.695C168.172,128,164.234,130.757,160.295,133.908z
	 M343.434,133.514c-3.938-3.151-8.271-5.908-12.603-8.665l3.938-6.695c4.332,2.757,9.058,5.908,12.997,9.058L343.434,133.514z
	 M185.895,117.76l-3.545-7.089c4.726-2.363,9.846-4.332,14.572-6.302l2.757,7.483C194.954,113.428,190.228,115.791,185.895,117.76z
	 M317.44,117.366c-4.332-2.363-9.058-4.332-13.785-5.908l2.757-7.483c5.12,1.969,9.846,3.938,14.572,6.302L317.44,117.366z
	 M214.252,107.126l-1.969-7.483c5.12-1.182,10.24-2.363,15.754-3.151l1.182,7.877C224.098,104.763,218.978,105.945,214.252,107.126z
	 M289.083,107.126c-4.726-1.182-9.846-2.363-14.966-3.151l1.182-7.877c5.12,0.788,10.634,1.969,15.754,3.151L289.083,107.126z
	 M244.185,102.794l-0.394-7.877c5.12-0.394,10.634-0.394,15.754,0l-0.394,7.877C254.031,102.4,248.911,102.4,244.185,102.794z"/>
</svg>